<?xml version="1.0" encoding="UTF-8" standalone="no"?><!DOCTYPE svg PUBLIC "-//W3C//DTD SVG 1.1//EN" "http://www.w3.org/Graphics/SVG/1.1/DTD/svg11.dtd"><svg width="100%" height="100%" viewBox="0 0 155 31" version="1.1" xmlns="http://www.w3.org/2000/svg" xmlns:xlink="http://www.w3.org/1999/xlink" xml:space="preserve" style="fill-rule:evenodd;clip-rule:evenodd;stroke-linejoin:round;stroke-miterlimit:1.41421;"><g id="tradeit-logo"><clipPath id="_clip1"><path d="M142.808,9.72l0,-3.91l1.395,0l0,-0.81l-3.782,0l0,0.81l1.391,0l0,3.91l0.996,0Zm6.932,-4.72l-1.154,0l-1.352,3.35l-0.026,0l-1.352,-3.35l-1.154,0l0,4.72l0.887,0l0,-3.19l0.026,0l1.293,3.15l0.626,0l1.293,-3.15l0.026,0l0,3.19l0.887,0l0,-4.72Z"/></clipPath><g clip-path="url(#_clip1)"><rect x="135.421" y="0" width="19.319" height="14.72" style="fill:#093356;fill-rule:nonzero;"/></g><clipPath id="_clip2"><path d="M116.403,25.9l-6.213,0l0,-20.79l6.213,0l0,20.79Zm19.653,-15.87l-6.094,0l0,15.87l-6.243,0l0,-15.87l-6.063,0l0,-4.92l18.4,0l0,4.92Z"/></clipPath><g clip-path="url(#_clip2)"><rect x="105.19" y="0.11" width="35.866" height="30.79" style="fill:#093356;fill-rule:nonzero;"/></g><clipPath id="_clip3"><path d="M23.4,10.03l0,-4.92l-18.4,0l0,4.92l6.063,0l0,15.87l6.243,0l0,-15.87l6.094,0Zm13.529,15.87l7.049,0l-4.242,-6.79c2.27,-1.28 3.525,-3.53 3.525,-6.62c0,-4.71 -3.226,-7.38 -8.842,-7.38l-9.767,0l0,20.79l6.213,0l0,-5.61l3.286,0l2.778,5.61Zm-6.064,-10.35l0,-5.7l3.554,0c1.852,0 2.928,1.01 2.928,2.82c0,1.87 -1.076,2.88 -2.928,2.88l-3.554,0Zm28.852,7.03l1.225,3.32l6.631,0l-8.633,-20.79l-6.392,0l-8.931,20.79l6.392,0l1.255,-3.32l8.453,0Zm-1.643,-4.51l-5.078,0l2.569,-6.79l2.509,6.79Zm10.333,-12.96l0,20.79l8.961,0c6.9,0 11.47,-4.15 11.47,-10.41c0,-6.26 -4.48,-10.38 -11.261,-10.38l-9.17,0Zm6.213,4.86l2.838,0c2.987,0 5.048,2.23 5.048,5.58c0,3.32 -1.912,5.51 -4.75,5.51l-3.136,0l0,-11.09Zm32.974,-0.12l0,-4.74l-17.115,0l0,20.79l17.414,0l0,-4.75l-11.201,0l0,-3.29l9.886,0l0,-4.75l-9.886,0l0,-3.26l10.902,0Z"/></clipPath><g clip-path="url(#_clip3)"><rect x="0" y="0.11" width="112.893" height="30.79" style="fill:#fff;fill-rule:nonzero;"/></g></g></svg>